<svg version="1.1" xmlns="http://www.w3.org/2000/svg" xmlns:xlink="http://www.w3.org/1999/xlink" width="187" height="187.11534" viewBox="0,0,187,187.11534"><g transform="translate(-86.5,-226.5)"><g fill-rule="evenodd" stroke="none" stroke-miterlimit="10"><g><path d="M128.62874,413.5c-23.26706,0 -42.12874,-18.86168 -42.12874,-42.12874v-102.74253c0,-23.26706 18.86168,-42.12874 42.12874,-42.12874h102.74253c23.26706,0 42.12874,18.86168 42.12874,42.12874v102.74253c0,23.26706 -18.86168,42.12874 -42.12874,42.12874z" fill="#ffffff"/><g fill="#000000"><path d="M118.74138,413.4004c0,0 -0.21494,0 -0.21494,-0.21494c0,0 0,0 -0.21494,0l2.36437,-0.21494c0.85977,-6.87816 4.72874,-17.41034 7.52299,-22.99885c3.22414,-6.87816 7.30805,-12.89655 12.03678,-18.05517c29.87701,-32.45632 72.86552,-20.41954 91.78046,18.27011c2.79425,5.80345 6.66322,15.6908 7.73793,22.99885l1.93448,0.42989h-122.73218c-0.21494,0 -0.21494,-0.21494 -0.21494,-0.21494z"/><path d="M204.50345,274.11764c6.23333,5.80345 11.82184,15.47586 13.11149,27.2977c2.36437,24.71839 -13.97126,43.63333 -33.31609,46.21264c-16.33563,2.36437 -29.66207,-7.0931 -37.18506,-21.06437c-2.14943,-4.08391 -4.08391,-10.1023 -4.51379,-15.47586c-2.57931,-22.13908 10.53218,-40.83908 29.23218,-45.9977c1.28966,-0.42989 2.57931,-0.42989 4.08391,-0.64483c11.17701,-1.93448 22.35402,3.65402 28.58736,9.67241z"/></g></g></g></g></svg>