<svg version="1.1" xmlns="http://www.w3.org/2000/svg" xmlns:xlink="http://www.w3.org/1999/xlink" width="124.2931" height="42.20513" viewBox="0,0,124.2931,42.20513"><g transform="translate(-117.85345,-298.89742)"><g stroke-miterlimit="10"><path d="M119.10345,339.85256v-39.70513h121.7931v39.70513z" fill="#ffffff" fill-rule="nonzero" stroke="#000000" stroke-width="2.5"/><g fill-rule="evenodd" stroke="none" stroke-width="1"><path d="M171.98807,318.79719c1.03146,0 1.92811,-0.02282 2.27245,0.77646c0.40057,0.93085 -0.22031,1.70123 -0.95905,1.83203c-0.51149,0.09126 -5.08797,0.02966 -6.02006,0.03042c-1.07306,0.00076 -1.88112,0.07833 -2.26243,-0.77571c-0.40365,-0.90423 0.22955,-1.67157 0.98524,-1.83051c0.90975,-0.19164 4.75981,-0.03117 5.98385,-0.03269z" fill="#c8c8c8"/><path d="M192.53253,318.54242c1.07614,0 1.90269,-0.13385 2.38338,0.65631c0.50764,0.83655 -0.08628,1.70275 -0.74644,1.91112c-0.58622,0.1848 -4.98937,0.07453 -5.98077,0.07529c-1.05457,0 -1.96046,0.0981 -2.39262,-0.66467c-0.52459,-0.92476 0.08551,-1.66168 0.8281,-1.90657c0.5138,-0.16959 4.97319,-0.07072 5.90836,-0.07148z" fill="#444444"/><path d="M174.68958,308.51985l2.64759,4.53483c0.55848,0.94378 0.5554,1.92937 -0.42137,2.28377c-1.31032,0.47607 -1.75478,-0.71259 -2.16922,-1.42441c-0.45911,-0.78863 -0.86661,-1.47384 -1.32187,-2.26855c-0.9683,-1.68906 -2.82169,-3.87396 -0.8358,-4.61165c1.18553,-0.44032 1.67545,0.77647 2.10067,1.48601z" fill="#9f9f9f"/><path d="M185.21602,326.00592l2.65068,4.53103c0.41905,0.73007 0.89126,1.89287 -0.38208,2.38415c-1.20632,0.46542 -1.72321,-0.70575 -2.10837,-1.35597c-0.44524,-0.75213 -0.8774,-1.49057 -1.32495,-2.26475c-0.94518,-1.63355 -2.81476,-3.97208 -0.93286,-4.6512c1.23483,-0.44565 1.67775,0.63122 2.09758,1.35673z" fill="#1a1a1a"/><path d="M175.28889,324.00505c-0.23032,0.64566 -1.42202,1.16052 -2.07756,1.5248l-4.60652,2.60774c-1.07768,0.35667 -2.1099,-0.63502 -1.70549,-1.69058c0.26268,-0.68369 1.36578,-1.1415 2.06215,-1.53772c0.7811,-0.44489 4.06499,-2.3872 4.62193,-2.59481c1.04918,-0.39013 2.09373,0.60078 1.70549,1.69057z" fill="#dddddd"/><path d="M177.63991,326.05687c0.13096,0.72095 -0.70253,1.82215 -1.1185,2.50279l-2.89255,4.8299c-0.81269,0.89434 -2.3048,0.50878 -2.49199,-0.68444c-0.12171,-0.77342 0.66017,-1.77499 1.09617,-2.50659c0.48992,-0.82209 2.50739,-4.34319 2.91412,-4.82535c0.76801,-0.91107 2.2709,-0.53386 2.49276,0.68369z" fill="#f2f2f2"/><path d="M193.12645,313.46687c-0.22108,0.70954 -1.33805,1.18486 -2.02826,1.57423l-4.60267,2.6085c-1.09154,0.43424 -2.11145,-0.49356 -1.81103,-1.60997c0.18025,-0.66848 1.36424,-1.1742 2.04828,-1.55445c1.06997,-0.59546 3.74222,-2.22826 4.65428,-2.58797c1.01375,-0.40002 2.07987,0.47911 1.73938,1.56966z" fill="#595959"/><path d="M187.99457,308.67575c-0.12325,0.31104 -0.48453,0.84871 -0.65939,1.13313l-2.01747,3.45874c-0.42522,0.72019 -0.82655,1.77043 -1.61305,1.98413c-1.07999,0.29356 -1.99128,-0.78407 -1.55759,-1.80998l2.67378,-4.59643c0.57851,-1.03656 0.83811,-1.74458 1.69394,-1.95676c1.01066,-0.24944 1.8842,0.76734 1.47978,1.78717z" fill="#6e6e6e"/><path d="M169.05623,312.38317c0.40365,0.24412 0.73951,0.40914 1.14778,0.65554c0.77418,0.46771 1.51907,0.85556 2.29171,1.31186c0.40981,0.24183 0.79343,0.45097 1.20401,0.68673c0.33123,0.18937 0.85351,0.44185 1.11542,0.68445c0.75338,0.69738 0.38054,1.93469 -0.52382,2.20923c-0.7996,0.2426 -1.9905,-0.66239 -2.59444,-1.00538c-0.7087,-0.40306 -4.29454,-2.3621 -4.61653,-2.67922c-0.72564,-0.71335 -0.44525,-1.88451 0.56464,-2.19175c0.59853,-0.18252 0.96522,0.06008 1.41123,0.32854z" fill="#b4b4b4"/><path d="M181.46379,327.09191v6.25507c0,2.09821 -2.66994,2.05942 -2.66994,0v-6.25507c0,-2.06475 2.66994,-2.11494 2.66994,0z" fill="#040404"/><path d="M188.2403,323.02022c0.7811,0.45173 1.53679,0.85555 2.30172,1.30196l2.32714,1.36509c0.9991,0.87989 0.13326,3.1667 -1.87727,1.94306l-3.43794,-1.96664c-0.40673,-0.24336 -0.78881,-0.45022 -1.20401,-0.68749c-0.3166,-0.181 -0.88356,-0.45934 -1.12929,-0.67151c-0.8566,-0.73844 -0.49378,-1.86093 0.46373,-2.22902c0.7734,-0.29811 1.96432,0.60232 2.55593,0.94454z" fill="#2f2f2f"/><path d="M181.19726,306.28476l0.01001,5.97521c0.00154,1.00309 -0.04545,1.82746 -0.84966,2.09516c-0.99679,0.3331 -1.74016,-0.31332 -1.81411,-1.13389l-0.00924,-5.96533c-0.00154,-1.02819 0.02696,-1.78792 0.88586,-2.08223c0.89819,-0.308 1.69549,0.32093 1.77714,1.11109z" fill="#838383"/></g></g></g></svg>