<svg version="1.1" xmlns="http://www.w3.org/2000/svg" xmlns:xlink="http://www.w3.org/1999/xlink" width="757.33818" height="825" viewBox="0,0,757.33818,825"><g transform="translate(126,92.5)"><g><path d="M-126,732.5v-825h612v825z" fill="#ffffff" fill-rule="nonzero" stroke="none" stroke-width="0" stroke-miterlimit="10"/><g fill-opacity="0.08235" fill="#000000" fill-rule="evenodd" stroke="#2b2a29" stroke-width="0" stroke-miterlimit="22.9256"><path d="M382.42862,537.54804c11.1646,20.59315 -4.70088,55.89567 65.22475,64.72127c-1.17523,0.58838 0,0 -3.52565,1.76514c-9.40176,2.94187 -29.38053,2.35349 -44.07078,17.65124c-15.86548,17.65124 -9.40176,28.8304 -17.62832,47.65841c-2.93804,-21.18153 -7.05133,-38.83277 -18.80355,-49.42352c-15.86548,-14.70938 -30.55576,-9.41402 -47.00885,-17.65124c46.42124,-7.64888 59.93626,-16.47452 65.81237,-64.72127z"/><path d="M80.73897,201.28822c11.97559,-12.35455 7.25794,-17.07835 13.42719,-30.88638c10.16112,20.34867 -1.0887,35.97356 47.17661,43.60431c-47.90241,6.54064 -41.37026,33.06659 -47.17661,46.1479c-6.89504,-15.26152 1.4516,-38.15378 -46.0879,-45.78452c13.42719,-4.7238 22.1367,-2.18021 32.66072,-13.0813z"/><path d="M543.43389,165.10645l9.40176,-15.88614c0,-0.58838 0.58761,-0.58838 0.58761,-1.17676l1.76284,2.35349c11.75221,21.76987 2.35046,11.76751 28.20531,22.94663c-4.11327,2.94187 -7.05133,2.94187 -11.75221,4.70701c-13.51505,5.29539 -14.10264,18.23962 -18.21593,25.8885c-4.70088,-8.23726 -1.76284,-13.53265 -9.40176,-20.59315c-6.46372,-5.88374 -10.57699,-5.29539 -17.62832,-8.23726c-0.58761,-0.58838 -1.17523,0 -1.17523,-0.58838c-0.58761,-0.58838 -1.17523,-0.58838 -1.76284,-1.17676c7.63895,-2.94187 15.27786,-3.53025 19.97874,-8.23726z"/><path d="M193.71673,37.42901c11.04515,47.00298 24.85159,33.73154 46.38963,44.79109c-36.44898,-0.55297 -41.41931,25.98988 -45.83736,42.0262c-13.25417,-29.30774 -2.76128,-25.4369 -32.58319,-40.36726c-5.52256,-2.76489 -3.86579,-1.65891 -6.07483,-3.31786c32.03093,-14.93035 27.61287,-6.08275 38.10576,-43.13215z"/><path d="M301.33835,290.68573c-2.93804,5.88374 -5.28849,11.17913 -7.63895,17.0629l-6.46372,13.53265c-1.17523,1.76514 -1.17523,1.17676 -2.35046,2.94187c-1.76284,12.94427 -23.50443,50.0119 -28.79292,65.89803l64.04956,-25.8885c11.75221,-7.0605 34.66903,-15.29776 49.35928,-21.76987c16.45309,-7.0605 34.08141,-14.121 52.88496,-18.828c24.67965,-4.11863 80.50265,-11.76751 105.76989,2.35349l2.35046,1.76514c14.10264,0 40.54513,19.41639 49.35928,27.06526c12.33983,10.59075 23.50443,24.12339 32.90618,42.36302c16.45309,30.59551 26.44246,90.60981 10.57699,126.50071c-4.70088,21.18153 -21.15397,33.53738 -45.24601,36.47928c-27.03008,2.35349 -44.07078,-5.88374 -60.52388,-17.65124c-9.98937,-6.47212 -42.89556,-33.53738 -47.00885,-41.18626c-5.87611,-1.76514 -5.28849,-2.94187 -10.57699,-7.0605c-2.35046,-1.17676 -6.46372,-4.11863 -9.98937,-5.88374c-29.96815,-16.47452 -58.76103,-12.94427 -88.14157,-11.76751c-4.11327,1.76514 -5.87611,1.17676 -11.1646,3.53025c-12.33983,5.88374 -38.78229,25.8885 -59.34865,34.12576l-11.75221,7.0605c-21.15397,10.00237 -76.38935,36.47928 -95.1929,32.94903l-11.1646,2.94187c-23.50443,1.76514 -48.18405,-1.76514 -65.81237,-17.65124c-42.30794,-38.24439 -27.61769,-101.20055 -4.70088,-147.6822c5.87611,-13.53265 27.61769,-55.30729 35.84425,-61.19102c2.35046,-7.64888 16.45309,-30.00713 21.74158,-40.00953c7.05133,-12.94427 15.86548,-27.65364 22.91681,-39.42115l44.6584,-77.07716c15.27786,-28.24202 49.94689,-80.60741 72.27609,-101.78893c39.95752,-38.24439 81.09027,-32.94903 113.99645,9.41402c11.75221,14.121 121.04775,205.93136 126.92386,222.40587c-28.20531,-5.29539 -43.48317,-13.53265 -77.56458,-10.59075c-26.44246,2.35349 -46.42124,10.00237 -70.51325,15.88614c-5.87611,-14.121 -18.21593,-33.53738 -26.44246,-44.12816c-12.92744,-16.47452 -28.20531,-19.41639 -44.6584,-3.53025c-7.05133,7.0605 -15.27786,18.23962 -20.56636,28.8304z"/></g><path d="M26,514.5v-299h308v299z" fill="#ffffff" fill-rule="nonzero" stroke="#000000" stroke-width="2.5" stroke-miterlimit="10"/><path d="M16.43884,25.10355c-2.04248,-0.99714 -3.53124,-2.23789 -4.75063,-3.58757c-1.5127,-1.67408 -1.77251,-3.84793 -1.48516,-6.60654c0.08201,-0.79305 0.78957,-4.43868 1.15652,-5.10364l0.66926,-0.9331c0.15385,-0.2041 0.05208,-0.11133 0.22568,-0.24001l4.4992,3.23205c2.88533,2.11759 6.15199,4.35369 8.97207,6.47308c0.39987,0.30046 0.77342,0.54585 1.15354,0.83495c0.38192,0.29088 0.73391,0.49737 1.11702,0.79305c0.41544,0.32022 0.70877,0.51114 1.11163,0.80083c0.28434,0.20469 0.83686,0.67993 1.12001,0.77329l4.4609,-3.23564c0.35917,-0.27053 0.75546,-0.52372 1.15893,-0.83135l2.80093,-2.01464c0.19395,-0.13228 0.3023,-0.22983 0.52978,-0.38665c0.76923,-0.5291 1.49235,-1.07735 2.26816,-1.63337l6.67098,-4.80019c0.21072,0.12689 0.03472,0.0012 0.19575,0.18794l0.38491,0.53149c0.68302,0.95884 0.72133,1.42629 1.01106,2.79751c1.18765,5.61658 1.07691,8.23634 -3.44624,11.60125c-2.04967,1.52445 -5.22473,2.78255 -8.54944,2.63531c-0.59323,0.80862 -1.19065,1.63398 -1.80363,2.46115l-5.00145,6.77413c-0.22089,0.29088 -0.23107,0.39323 -0.45495,0.53628l-5.15829,-7.37804c-0.29692,-0.4465 -1.44386,-2.16966 -1.72401,-2.43541c-2.92963,0.04489 -4.82066,-0.11731 -7.13252,-1.24614zM27.9682,27.41626c-0.54474,0.43213 -0.6944,-0.3687 -0.83926,-0.76792c-0.23407,-0.64581 -0.48667,-1.00194 0.06943,-1.25691c1.75036,-0.80322 1.11163,1.75309 0.76982,2.02481zM34.08846,25.7757c0.02574,0.26095 -0.33822,1.10967 -0.42741,1.36525c-0.54055,1.55498 -1.50732,-1.32275 -0.85662,-1.78241c0.36096,-0.25558 1.23794,-0.05626 1.28404,0.41717zM29.80596,23.12602c0.33702,-0.20051 0.41724,-0.20051 0.77042,-0.01257c0.68482,0.3651 5.66531,3.05429 5.81137,3.26437c-0.49026,0.70207 -0.96796,1.22279 -1.48157,1.85184l-3.74974,4.65953c-0.24124,0.30226 -0.47171,0.61229 -0.74468,0.86727c-0.28734,-0.28849 -0.48009,-0.64701 -0.72194,-0.95824l-2.15562,-2.89028c-0.31547,-0.41957 -2.61296,-3.42537 -2.79913,-3.82938zM12.21919,10.45281c0.9919,0.11252 0.74468,0.05028 1.43069,0.53508c0.57587,0.407 2.77699,2.07329 3.22954,2.28159c-0.085,0.42555 -0.53157,0.97081 -0.69559,1.58909c-0.81891,3.07643 1.99938,5.92123 5.16846,5.31791c1.12061,-0.21308 2.27116,-0.93132 2.64828,-1.63219c0.36515,0.082 1.03201,0.65719 1.3852,0.89599l3.5953,2.60419c0.09638,0.0826 0.05507,0.0407 0.12871,0.12808c-0.22328,0.23642 -2.076,1.30718 -2.32503,1.45502c-0.78179,0.46266 -1.54742,0.93132 -2.32862,1.42031c-0.53336,0.33338 -0.87458,0.29268 -1.64919,0.28729c-2.44894,-0.01736 -5.25705,-0.78408 -7.38035,-1.89673c-2.79674,-1.4664 -4.30465,-3.52712 -4.31244,-6.84715c-0.00599,-2.31271 0.61178,-4.16276 1.10504,-6.1385zM45.5819,11.60677c1.17149,-0.87924 1.53366,-1.34668 2.61835,-1.37542c0.20053,1.25093 0.54654,2.05893 0.76982,3.8976c0.32565,2.68799 -0.00478,5.46276 -1.87008,7.33136c-1.40315,1.40594 -7.55873,4.40217 -9.90592,4.05562c-0.28075,-0.04129 -2.56747,-1.40774 -2.99308,-1.65613l-2.92663,-1.65732c0.11374,-0.2053 -0.00778,-0.04129 0.15743,-0.19991c0.06585,-0.06344 0.05987,-0.04788 0.13469,-0.10115l3.34627,-2.45994c0.3047,-0.21128 0.92845,-0.72183 1.19963,-0.83434c0.18617,0.13766 0.40406,0.38785 0.57407,0.54526c0.20652,0.19033 0.38491,0.31303 0.61178,0.45907c2.31246,1.48255 6.03106,0.39802 6.72786,-2.89567c0.38012,-1.79558 -0.60999,-2.83343 -0.76443,-3.44812z" fill="#000000" fill-rule="evenodd" stroke="none" stroke-width="1" stroke-miterlimit="10"/><text transform="translate(55.5,27.5) scale(0.5,0.5)" font-size="40" xml:space="preserve" fill="#000000" fill-rule="nonzero" stroke="none" stroke-width="1" stroke-miterlimit="10" font-family="Sans Serif" font-weight="normal" text-anchor="start"><tspan x="0" dy="0">leomalikdev</tspan></text><text transform="translate(112.69911,136.26325) scale(0.55094,0.55094)" font-size="40" xml:space="preserve" fill="#000000" fill-rule="nonzero" stroke="none" stroke-width="1" stroke-miterlimit="10" font-family="&quot;ios bold&quot;, Sans Serif" font-weight="normal" text-anchor="start"><tspan x="0" dy="0">لاستخدام آريا</tspan></text><text transform="translate(44.14435,164.91225) scale(0.55094,0.55094)" font-size="40" xml:space="preserve" fill="#000000" fill-rule="nonzero" stroke="none" stroke-width="1" stroke-miterlimit="10" font-family="&quot;ios bold&quot;, Sans Serif" font-weight="normal" text-anchor="start"><tspan x="0" dy="0">يرجى تسجيل الدخول</tspan></text><text transform="translate(167.5,250) scale(0.5,0.5)" font-size="40" xml:space="preserve" fill="#000000" fill-rule="nonzero" stroke="none" stroke-width="1" stroke-miterlimit="10" font-family="&quot; F arabiapps&quot;, Sans Serif" font-weight="normal" text-anchor="start"><tspan x="0" dy="0">البريد الالكتروني</tspan></text><text transform="translate(226.5,328) scale(0.5,0.5)" font-size="40" xml:space="preserve" fill="#000000" fill-rule="nonzero" stroke="none" stroke-width="1" stroke-miterlimit="10" font-family="&quot; F arabiapps&quot;, Sans Serif" font-weight="normal" text-anchor="start"><tspan x="0" dy="0">كلمة السر</tspan></text><g fill-rule="evenodd" stroke="#2b2a29" stroke-width="0.04" stroke-miterlimit="22.9256"><path d="M289.05557,172.32025c1.58257,2.91905 -0.66634,7.92314 9.24553,9.17416c-0.16659,0.0834 0,0 -0.49976,0.25021c-1.33269,0.41701 -4.16465,0.3336 -6.24698,2.50204c-2.24891,2.50204 -1.33269,4.08667 -2.49879,6.75552c-0.41646,-3.00245 -0.99952,-5.5045 -2.66538,-7.00572c-2.24891,-2.08504 -4.33124,-1.33443 -6.66345,-2.50204c6.58015,-1.08422 8.49589,-2.33524 9.32882,-9.17416z" fill="#ff0072"/><path d="M246.29144,124.65585c1.69752,-1.75124 1.0288,-2.42083 1.90329,-4.37811c1.44033,2.8844 -0.15432,5.09921 6.68722,6.18086c-6.79011,0.92713 -5.86418,4.68715 -6.68722,6.54141c-0.97736,-2.1633 0.20576,-5.40825 -6.5329,-6.4899c1.90329,-0.66959 3.13785,-0.30904 4.62962,-1.85426z" fill="#ff0072"/><path d="M311.87786,119.52712l1.33269,-2.25184c0,-0.0834 0.08329,-0.0834 0.08329,-0.1668l0.24988,0.3336c1.66586,3.08585 0.33317,1.66803 3.99807,3.25266c-0.58305,0.41701 -0.99952,0.41701 -1.66586,0.66721c-1.91574,0.75061 -1.99903,2.58544 -2.58209,3.66966c-0.66634,-1.16762 -0.24988,-1.91824 -1.33269,-2.91905c-0.91622,-0.83401 -1.49927,-0.75061 -2.49879,-1.16762c-0.08329,-0.0834 -0.16659,0 -0.16659,-0.0834c-0.08329,-0.0834 -0.16659,-0.0834 -0.24988,-0.1668c1.08281,-0.41701 2.16562,-0.50041 2.83196,-1.16762z" fill="#ff0072"/><path d="M262.3059,101.42901c1.56564,6.66261 3.52268,4.7814 6.57567,6.34908c-5.1666,-0.07838 -5.87113,3.68403 -6.49739,5.95716c-1.87876,-4.15433 -0.39141,-3.60565 -4.61863,-5.72201c-0.78282,-0.39192 -0.54797,-0.23515 -0.8611,-0.4703c4.54034,-2.11636 3.91409,-0.86222 5.40144,-6.11393z" fill="#ff0072"/><path d="M277.56112,137.32783c-0.41646,0.83401 -0.74964,1.58463 -1.08281,2.41864l-0.91622,1.91824c-0.16659,0.25021 -0.16659,0.1668 -0.33317,0.41701c-0.24988,1.83483 -3.33172,7.08912 -4.08136,9.34096l9.07894,-3.66966c1.66586,-1.00082 4.91429,-2.16844 6.99661,-3.08585c2.3322,-1.00082 4.831,-2.00163 7.49638,-2.66885c3.49831,-0.58381 11.41115,-1.66803 14.99275,0.3336l0.33317,0.25021c1.99903,0 5.74722,2.75225 6.99661,3.83647c1.74915,1.50122 3.33172,3.41946 4.66441,6.0049c2.3322,4.33688 3.74819,12.84383 1.49927,17.93132c-0.66634,3.00245 -2.99855,4.75388 -6.41356,5.17089c-3.83148,0.3336 -6.24698,-0.83401 -8.57918,-2.50204c-1.41598,-0.91741 -6.08039,-4.75388 -6.66345,-5.8381c-0.83293,-0.25021 -0.74964,-0.41701 -1.49927,-1.00082c-0.33317,-0.1668 -0.91622,-0.58381 -1.41598,-0.83401c-4.24795,-2.33524 -8.3293,-1.83483 -12.49396,-1.66803c-0.58305,0.25021 -0.83293,0.1668 -1.58257,0.50041c-1.74915,0.83401 -5.49734,3.66966 -8.4126,4.83728l-1.66586,1.00082c-2.99855,1.41782 -10.82809,5.17089 -13.49347,4.67048l-1.58257,0.41701c-3.33172,0.25021 -6.83003,-0.25021 -9.32882,-2.50204c-5.9971,-5.42109 -3.91477,-14.34505 -0.66634,-20.93377c0.83293,-1.91824 3.91477,-7.83974 5.08088,-8.67375c0.33317,-1.08422 2.3322,-4.25347 3.08184,-5.6713c0.99952,-1.83483 2.24891,-3.91987 3.24843,-5.5879l6.33027,-10.92559c2.16562,-4.00327 7.07991,-11.426 10.24504,-14.42845c5.66393,-5.42109 11.49444,-4.67048 16.15885,1.33443c1.66586,2.00163 17.15837,29.19051 17.9913,31.52575c-3.99807,-0.75061 -6.16368,-1.91824 -10.99468,-1.50122c-3.74819,0.3336 -6.58015,1.41782 -9.99516,2.25184c-0.83293,-2.00163 -2.58209,-4.75388 -3.74819,-6.25511c-1.83245,-2.33524 -3.99807,-2.75225 -6.33027,-0.50041c-0.99952,1.00082 -2.16562,2.58544 -2.91526,4.08667z" fill="#000000"/></g></g></g></svg>