<svg version="1.1" xmlns="http://www.w3.org/2000/svg" xmlns:xlink="http://www.w3.org/1999/xlink" width="276.94664" height="56.39024" viewBox="0,0,276.94664,56.39024"><g transform="translate(-41.52668,-291.80488)"><g stroke="none" stroke-miterlimit="10"><g fill="#457b31"><path d="M211.6593,348.19512c-15.57174,0 -28.19512,-12.62339 -28.19512,-28.19512v0c0,-15.57174 12.62339,-28.19512 28.19512,-28.19512h35.2439c15.57174,0 28.19512,12.62339 28.19512,28.19512v0c0,15.57174 -12.62339,28.19512 -28.19512,28.19512z"/><path d="M172.4093,348.19512c-15.57174,0 -28.19512,-12.62339 -28.19512,-28.19512v0c0,-15.57174 12.62339,-28.19512 28.19512,-28.19512h35.2439c15.57174,0 28.19512,12.62339 28.19512,28.19512v0c0,15.57174 -12.62339,28.19512 -28.19512,28.19512z"/><path d="M255.0343,348.19512c-15.57174,0 -28.19512,-12.62339 -28.19512,-28.19512v0c0,-15.57174 12.62339,-28.19512 28.19512,-28.19512h35.2439c15.57174,0 28.19512,12.62339 28.19512,28.19512v0c0,15.57174 -12.62339,28.19512 -28.19512,28.19512z"/><path d="M108.9718,348.19512c-15.57174,0 -28.19512,-12.62339 -28.19512,-28.19512v0c0,-15.57174 12.62339,-28.19512 28.19512,-28.19512h35.2439c15.57174,0 28.19512,12.62339 28.19512,28.19512v0c0,15.57174 -12.62339,28.19512 -28.19512,28.19512z"/><path d="M69.7218,348.19512c-15.57174,0 -28.19512,-12.62339 -28.19512,-28.19512v0c0,-15.57174 12.62339,-28.19512 28.19512,-28.19512h35.2439c15.57174,0 28.19512,12.62339 28.19512,28.19512v0c0,15.57174 -12.62339,28.19512 -28.19512,28.19512z"/><path d="M152.3468,348.19512c-15.57174,0 -28.19512,-12.62339 -28.19512,-28.19512v0c0,-15.57174 12.62339,-28.19512 28.19512,-28.19512h35.2439c15.57174,0 28.19512,12.62339 28.19512,28.19512v0c0,15.57174 -12.62339,28.19512 -28.19512,28.19512z"/></g><text transform="translate(73.13478,327.51875) scale(0.65168,0.65168)" font-size="40" xml:space="preserve" fill="#ffffff" font-family="&quot; F arabiapps&quot;, Sans Serif" font-weight="normal" text-anchor="start"><tspan x="0" dy="0">عرض الاجابة الكاملة</tspan></text></g></g></svg>