<svg version="1.1" xmlns="http://www.w3.org/2000/svg" xmlns:xlink="http://www.w3.org/1999/xlink" width="540" height="960" viewBox="0,0,540,960"><defs><clipPath id="clip-1"><path d="M-90,800v-960h540v960z" fill="none" stroke="none" stroke-width="1"/></clipPath></defs><g transform="translate(90,160)"><g clip-path="url(#clip-1)" stroke-miterlimit="10"><path d="M148,232c-15.46397,0 -28,-12.53603 -28,-28v-40c0,-15.46397 12.53603,-28 28,-28h40c15.46397,0 28,12.53603 28,28v40c0,15.46397 -12.53603,28 -28,28z" fill-opacity="0.01569" fill="#ffffff" stroke="#ffffff" stroke-width="2.5"/><g fill="#ffffff" stroke="none"><path d="M168.69048,182.35714h2.1375l14.6625,-14.6625l-2.1375,-2.1375l-14.6625,14.6625zM165.69048,185.35714v-6.375l19.8,-19.7625c0.3,-0.275 0.6313,-0.4875 0.9938,-0.6375c0.3625,-0.15 0.7437,-0.225 1.1437,-0.225c0.4,0 0.7875,0.075 1.1625,0.225c0.375,0.15 0.7,0.375 0.975,0.675l2.0625,2.1c0.3,0.275 0.5188,0.6 0.6563,0.975c0.1375,0.375 0.2062,0.75 0.2062,1.125c0,0.4 -0.0687,0.7812 -0.2062,1.1437c-0.1375,0.3625 -0.3563,0.6938 -0.6563,0.9938l-19.7625,19.7625zM184.40298,166.64464l-1.05,-1.0875l2.1375,2.1375z" stroke-width="1"/><g stroke-width="0"><path d="M156.72969,206.46154v-25.47619h2.61905v25.47619z"/><path d="M170.77731,195.03296h-25.47619v-2.61904h25.47619z"/></g></g></g></g></svg>