<svg version="1.1" xmlns="http://www.w3.org/2000/svg" xmlns:xlink="http://www.w3.org/1999/xlink" width="211.62141" height="304.20086" viewBox="0,0,211.62141,304.20086"><g transform="translate(-18.66159,-31.06952)"><g stroke-miterlimit="10"><text transform="translate(18.41159,32.81952) scale(0.5,0.5)" font-size="40" xml:space="preserve" fill="#0a001e" fill-rule="nonzero" stroke="none" stroke-width="1" font-family="Sans Serif" font-weight="normal" text-anchor="start"><tspan x="0" dy="0">ِ</tspan></text><path d="M129.717,334.52038v-29.04075h56.17273v29.04075z" fill="none" fill-rule="nonzero" stroke="#ffffff" stroke-width="1.5"/><text transform="translate(136.40938,324.67608) scale(0.38967,0.38967)" font-size="40" xml:space="preserve" fill="#ffffff" fill-rule="nonzero" stroke="none" stroke-width="1" font-family="&quot;ios bold&quot;, Sans Serif" font-weight="normal" text-anchor="start"><tspan x="0" dy="0">تجريبي</tspan></text><path d="M196.12127,322.92931c-2.05763,-1.00454 -3.55743,-2.25449 -4.78586,-3.61418c-1.52392,-1.6865 -1.78565,-3.87647 -1.49618,-6.65554c0.08262,-0.79893 0.79543,-4.4716 1.1651,-5.14149l0.67422,-0.94002c0.15499,-0.20561 0.05247,-0.11215 0.22735,-0.24179l4.53257,3.25602c2.90673,2.13329 6.19761,4.38598 9.03861,6.52108c0.40284,0.30269 0.77915,0.5499 1.16209,0.84114c0.38475,0.29304 0.73935,0.50106 1.1253,0.79893c0.41852,0.32259 0.71402,0.51493 1.11988,0.80677c0.28645,0.20621 0.84307,0.68497 1.12832,0.77903l4.49398,-3.25963c0.36183,-0.27254 0.76106,-0.5276 1.16752,-0.83752l2.8217,-2.02958c0.19539,-0.13326 0.30454,-0.23154 0.53371,-0.38952c0.77493,-0.53302 1.50342,-1.08534 2.28498,-1.64549l6.72046,-4.83579c0.21228,0.12783 0.03498,0.00121 0.1972,0.18933l0.38777,0.53543c0.68809,0.96595 0.72668,1.43687 1.01856,2.81826c1.19646,5.65823 1.0849,8.29742 -3.4718,11.68729c-2.06487,1.53575 -5.26348,2.80319 -8.61285,2.65486c-0.59763,0.81461 -1.19948,1.6461 -1.81701,2.4794l-5.03854,6.82437c-0.22253,0.29304 -0.23278,0.39615 -0.45832,0.54026l-5.19654,-7.43276c-0.29912,-0.44981 -1.45457,-2.18575 -1.7368,-2.45347c-2.95136,0.04522 -4.85641,-0.11818 -7.18542,-1.25538zM207.73613,325.25917c-0.54878,0.43534 -0.69955,-0.37143 -0.84549,-0.77361c-0.2358,-0.6506 -0.49028,-1.00937 0.06995,-1.26623c1.76334,-0.80918 1.11988,1.76609 0.77553,2.03983zM213.90178,323.60644c0.02593,0.26289 -0.34073,1.1179 -0.43058,1.37537c-0.54456,1.56651 -1.5185,-1.33256 -0.86297,-1.79563c0.36364,-0.25747 1.24712,-0.05668 1.29356,0.42027zM209.58752,320.93711c0.33952,-0.20199 0.42033,-0.20199 0.77613,-0.01266c0.6899,0.36781 5.70733,3.07694 5.85447,3.28858c-0.4939,0.70728 -0.97514,1.23186 -1.49256,1.86558l-3.77755,4.69409c-0.24303,0.3045 -0.47521,0.61683 -0.7502,0.8737c-0.28947,-0.29063 -0.48365,-0.65181 -0.72729,-0.96535l-2.17161,-2.91172c-0.31781,-0.42268 -2.63234,-3.45077 -2.81989,-3.85778zM191.87032,308.16991c0.99926,0.11336 0.7502,0.05065 1.4413,0.53905c0.58014,0.41002 2.79758,2.08867 3.25349,2.29851c-0.08563,0.42871 -0.53551,0.97801 -0.70075,1.60087c-0.82498,3.09925 2.01421,5.96514 5.20679,5.35735c1.12892,-0.21466 2.288,-0.93822 2.66792,-1.64429c0.36786,0.08261 1.03967,0.66206 1.39547,0.90264l3.62196,2.62351c0.09709,0.08321 0.05548,0.041 0.12966,0.12903c-0.22494,0.23817 -2.0914,1.31688 -2.34227,1.46581c-0.78759,0.46609 -1.5589,0.93822 -2.34589,1.43084c-0.53732,0.33585 -0.88107,0.29485 -1.66142,0.28942c-2.4671,-0.01749 -5.29604,-0.78989 -7.43508,-1.9108c-2.81748,-1.47727 -4.33658,-3.55328 -4.34442,-6.89793c-0.00603,-2.32986 0.61632,-4.19363 1.11324,-6.18402zM225.48046,309.33243c1.18018,-0.88576 1.54503,-1.35667 2.63777,-1.38562c0.20202,1.2602 0.55059,2.0742 0.77553,3.92651c0.32806,2.70792 -0.00482,5.50327 -1.88395,7.38573c-1.41356,1.41637 -7.61479,4.43482 -9.97938,4.0857c-0.28283,-0.0416 -2.58651,-1.41818 -3.01528,-1.66841l-2.94834,-1.66961c0.11458,-0.20682 -0.00784,-0.0416 0.1586,-0.20139c0.06634,-0.06391 0.06031,-0.04824 0.13569,-0.1019l3.37109,-2.47819c0.30696,-0.21285 0.93534,-0.72718 1.20853,-0.84053c0.18755,0.13868 0.40706,0.39072 0.57833,0.5493c0.20805,0.19174 0.38777,0.31535 0.61632,0.46247c2.32961,1.49355 6.07579,0.40097 6.77775,-2.91715c0.38294,-1.8089 -0.61451,-2.85444 -0.7701,-3.47369z" fill="#ffffff" fill-rule="evenodd" stroke="none" stroke-width="1"/></g></g></svg>