<svg version="1.1" xmlns="http://www.w3.org/2000/svg" xmlns:xlink="http://www.w3.org/1999/xlink" width="93.16666" height="93.16666" viewBox="0,0,93.16666,93.16666"><g transform="translate(-133.41667,-273.41667)"><g><path d="M161.11111,365.33333c-14.60486,0 -26.44444,-11.83958 -26.44444,-26.44444v-37.77778c0,-14.60486 11.83958,-26.44444 26.44444,-26.44444h37.77778c14.60486,0 26.44444,11.83958 26.44444,26.44444v37.77778c0,14.60486 -11.83958,26.44444 -26.44444,26.44444z" fill="none" fill-rule="nonzero" stroke="#ffffff" stroke-width="2.5" stroke-miterlimit="10"/><g fill="#ffffff" fill-rule="evenodd" stroke="#2b2a29" stroke-width="0" stroke-miterlimit="22.9256"><path d="M184.88462,308.51393c0.00494,-1.81572 0.00247,-3.62898 0.00247,-5.44224h-25.81493v33.85488h25.81493c0,-1.74664 0.00247,-3.49329 0,-5.23994c-0.00493,-1.97115 -0.12838,-3.47603 1.29371,-4.15199c1.62453,-0.77464 3.08119,0.18256 3.42684,1.44321l0.09382,10.55637c-0.19998,1.75652 -1.30111,2.23019 -3.19477,2.23512l-21.58568,-0.00493c-12.30753,0 -10.69039,1.71951 -10.69039,-10.88201v-21.5642c0,-12.80629 -1.6122,-11.08431 10.48793,-11.08431l21.58322,-0.00247c4.34034,-0.0074 3.42438,2.40287 3.42438,7.46026c0,1.23598 0.14567,4.12239 -0.079,5.17087c-0.28886,1.34946 -1.6912,2.3264 -3.32562,1.66524c-1.5085,-0.61182 -1.44184,-2.02789 -1.4369,-4.01384z"/><path d="M177.56925,315.50793c-0.54564,0.54028 -1.51838,1.6529 -2.06895,1.97855c1.35048,0.27384 21.36348,0.09375 24.51134,0.09375c2.60223,0 5.82909,-0.49834 5.82909,2.42014c0,2.86174 -3.06145,2.41768 -5.62665,2.41768c-3.1923,0 -23.3559,-0.18009 -24.7138,0.09375c0.75302,0.44653 3.43673,3.13558 3.65893,4.22107c0.54563,2.67671 -2.422,3.75973 -4.30084,2.07476c-1.41222,-1.26312 -2.76764,-2.76553 -4.13295,-4.12979c-4.74277,-4.73914 -4.84153,-4.51958 -0.10122,-9.25625c1.40481,-1.40126 2.69605,-2.78773 4.13049,-4.13225c2.35287,-2.20798 6.99936,0.06168 2.81456,4.2186z"/></g></g></g></svg>