<svg version="1.1" xmlns="http://www.w3.org/2000/svg" xmlns:xlink="http://www.w3.org/1999/xlink" width="79.73819" height="79.73819" viewBox="0,0,79.73819,79.73819"><g transform="translate(-140.1309,-280.1309)"><g stroke-miterlimit="10"><path d="M154.00803,358.36909c-6.8357,0 -12.37713,-5.54143 -12.37713,-12.37713v-51.98393c0,-6.8357 5.54143,-12.37713 12.37713,-12.37713h51.98393c6.8357,0 12.37713,5.54143 12.37713,12.37713v51.98393c0,6.8357 -5.54143,12.37713 -12.37713,12.37713z" fill-opacity="0.01569" fill="#ffffff" fill-rule="nonzero" stroke="#ffffff" stroke-width="3"/><path d="M193.40464,299.94479v3.2651h5.14897h0.00422v0.00845c1.62621,0.00422 3.10036,0.66316 4.16479,1.73181c1.05598,1.06021 1.71492,2.52591 1.71914,4.1479h0.00845v0.00845v30.94873v0.00422h-0.00845c-0.00422,1.62199 -0.66315,3.09614 -1.73181,4.1648c-1.06021,1.05598 -2.52591,1.71491 -4.1479,1.71914v0.00845h-0.00845h-26.06164h-0.00422v-0.00845c-1.62199,-0.00422 -3.10036,-0.66316 -4.1648,-1.73181c-1.05598,-1.06021 -1.71491,-2.52591 -1.71913,-4.1479h-0.00845v-0.00845v-6.93147h-5.14897h-0.00422v-0.00845c-1.62199,-0.00422 -3.10036,-0.66316 -4.16479,-1.73181c-1.05598,-1.06021 -1.71492,-2.52591 -1.71914,-4.1479h-0.00845v-0.00845v-27.28236v-0.00422h0.00845c0.00422,-1.62621 0.66738,-3.10036 1.73181,-4.1648c1.06021,-1.05598 2.52591,-1.71491 4.1479,-1.71914v-0.00845h0.00845h26.06164h0.00422v0.00845c1.62621,0.00422 3.10036,0.66316 4.1648,1.73181c1.05598,1.06021 1.71491,2.52591 1.71913,4.1479h0.00845zM188.93572,299.94479v-0.00845h0.00845c0,-0.38438 -0.16473,-0.73919 -0.42662,-1.00107c-0.25766,-0.25766 -0.6167,-0.42239 -1.00107,-0.42239v0.00845h-0.00422h-26.06164h-0.00845v-0.00845c-0.38438,0 -0.73919,0.16473 -1.00107,0.42662c-0.25766,0.25766 -0.42239,0.6167 -0.42239,1.00107h0.00845v0.00422v27.28236v0.00845h-0.00845c0,0.38438 0.16473,0.73919 0.42661,1.00107c0.25766,0.25766 0.6167,0.42239 1.00107,0.42239v-0.00845h0.00423h5.14897v-19.54412v-0.00422h0.00845c0.00422,-1.62621 0.66738,-3.10036 1.73181,-4.1648c1.06021,-1.05598 2.52591,-1.71492 4.1479,-1.71914v-0.00845h0.00845h16.43953zM199.97707,340.05522v-30.94872v-0.00845h0.00845c0,-0.38438 -0.16473,-0.73919 -0.42661,-1.00107c-0.25766,-0.25766 -0.6167,-0.42239 -1.00107,-0.42239v0.00845h-0.00422h-26.06164h-0.00845v-0.00845c-0.38438,0 -0.73919,0.16473 -1.00107,0.42662c-0.25766,0.25766 -0.42239,0.6167 -0.42239,1.00107h0.00845v0.00422v30.94873v0.00845h-0.00845c0,0.38438 0.16473,0.73919 0.42662,1.00107c0.25766,0.25766 0.6167,0.42239 1.00107,0.42239v-0.00845h0.00422h26.06164h0.00845v0.00845c0.38438,0 0.73919,-0.16473 1.00107,-0.42662c0.25766,-0.25766 0.42239,-0.6167 0.42239,-1.00107h-0.00845v-0.00422z" fill="#ffffff" fill-rule="evenodd" stroke="none" stroke-width="1"/></g></g></svg>