<svg version="1.1" xmlns="http://www.w3.org/2000/svg" xmlns:xlink="http://www.w3.org/1999/xlink" width="79.73819" height="79.73819" viewBox="0,0,79.73819,79.73819"><g transform="translate(-140.1309,-280.1309)"><g><path d="M154.00803,358.36909c-6.8357,0 -12.37713,-5.54143 -12.37713,-12.37713v-51.98393c0,-6.8357 5.54143,-12.37713 12.37713,-12.37713h51.98393c6.8357,0 12.37713,5.54143 12.37713,12.37713v51.98393c0,6.8357 -5.54143,12.37713 -12.37713,12.37713z" fill-opacity="0.01569" fill="#ffffff" fill-rule="nonzero" stroke="#ffffff" stroke-width="3" stroke-linecap="butt" stroke-miterlimit="10"/><path d="M176.08848,320.8534c0.46822,0.46571 1.43246,1.29597 1.71468,1.76589c0.23732,-1.15266 0.08125,-18.23418 0.08125,-20.92095c0,-2.22107 -0.43189,-4.97526 2.09738,-4.97526c2.48008,0 2.09524,2.61301 2.09524,4.80247c0,2.7247 -0.15607,19.93477 0.08125,21.09376c0.38697,-0.64272 2.7174,-2.93333 3.65812,-3.12297c2.31973,-0.46571 3.25831,2.06723 1.79807,3.67086c-1.09466,1.20536 -2.39671,2.36223 -3.57902,3.52755c-4.1071,4.04806 -3.91683,4.13235 -8.02179,0.0864c-1.21438,-1.19903 -2.41594,-2.30114 -3.58114,-3.52547c-1.91352,-2.00823 0.05346,-5.9741 3.65598,-2.40229z" fill="#ffffff" fill-rule="evenodd" stroke="#2b2a29" stroke-width="0" stroke-linecap="butt" stroke-miterlimit="22.9256"/><path d="M165.74644,336.50413h28.50713" fill="none" fill-rule="nonzero" stroke="#ffffff" stroke-width="3.5" stroke-linecap="round" stroke-miterlimit="10"/></g></g></svg>