<svg version="1.1" xmlns="http://www.w3.org/2000/svg" xmlns:xlink="http://www.w3.org/1999/xlink" width="543.12613" height="1002.92414" viewBox="0,0,543.12613,1002.92414"><g transform="translate(93.06457,173.49713)"><g><path d="M-93.06456,829.42702v-1002.92414h543.12613v1002.92414z" fill="#ffffff" fill-rule="nonzero" stroke="none" stroke-width="0" stroke-miterlimit="10"/><path d="M16.43884,25.10355c-2.04248,-0.99714 -3.53124,-2.23789 -4.75063,-3.58757c-1.5127,-1.67408 -1.77251,-3.84793 -1.48516,-6.60654c0.08201,-0.79305 0.78957,-4.43868 1.15652,-5.10364l0.66926,-0.9331c0.15385,-0.2041 0.05208,-0.11133 0.22568,-0.24001l4.4992,3.23205c2.88533,2.11759 6.15199,4.35369 8.97207,6.47308c0.39987,0.30046 0.77342,0.54585 1.15354,0.83495c0.38192,0.29088 0.73391,0.49737 1.11702,0.79305c0.41544,0.32022 0.70877,0.51114 1.11163,0.80083c0.28434,0.20469 0.83686,0.67993 1.12001,0.77329l4.4609,-3.23564c0.35917,-0.27053 0.75546,-0.52372 1.15893,-0.83135l2.80093,-2.01464c0.19395,-0.13228 0.3023,-0.22983 0.52978,-0.38665c0.76923,-0.5291 1.49235,-1.07735 2.26816,-1.63337l6.67098,-4.80019c0.21072,0.12689 0.03472,0.0012 0.19575,0.18794l0.38491,0.53149c0.68302,0.95884 0.72133,1.42629 1.01106,2.79751c1.18765,5.61658 1.07691,8.23634 -3.44624,11.60125c-2.04967,1.52445 -5.22473,2.78255 -8.54944,2.63531c-0.59323,0.80862 -1.19065,1.63398 -1.80363,2.46115l-5.00145,6.77413c-0.22089,0.29088 -0.23107,0.39323 -0.45495,0.53628l-5.15829,-7.37804c-0.29692,-0.4465 -1.44386,-2.16966 -1.72401,-2.43541c-2.92963,0.04489 -4.82066,-0.11731 -7.13252,-1.24614zM27.9682,27.41626c-0.54474,0.43213 -0.6944,-0.3687 -0.83926,-0.76792c-0.23407,-0.64581 -0.48667,-1.00194 0.06943,-1.25691c1.75036,-0.80322 1.11163,1.75309 0.76982,2.02481zM34.08846,25.7757c0.02574,0.26095 -0.33822,1.10967 -0.42741,1.36525c-0.54055,1.55498 -1.50732,-1.32275 -0.85662,-1.78241c0.36096,-0.25558 1.23794,-0.05626 1.28404,0.41717zM29.80596,23.12602c0.33702,-0.20051 0.41724,-0.20051 0.77042,-0.01257c0.68482,0.3651 5.66531,3.05429 5.81137,3.26437c-0.49026,0.70207 -0.96796,1.22279 -1.48157,1.85184l-3.74974,4.65953c-0.24124,0.30226 -0.47171,0.61229 -0.74468,0.86727c-0.28734,-0.28849 -0.48009,-0.64701 -0.72194,-0.95824l-2.15562,-2.89028c-0.31547,-0.41957 -2.61296,-3.42537 -2.79913,-3.82938zM12.21919,10.45281c0.9919,0.11252 0.74468,0.05028 1.43069,0.53508c0.57587,0.407 2.77699,2.07329 3.22954,2.28159c-0.085,0.42555 -0.53157,0.97081 -0.69559,1.58909c-0.81891,3.07643 1.99938,5.92123 5.16846,5.31791c1.12061,-0.21308 2.27116,-0.93132 2.64828,-1.63219c0.36515,0.082 1.03201,0.65719 1.3852,0.89599l3.5953,2.60419c0.09638,0.0826 0.05507,0.0407 0.12871,0.12808c-0.22328,0.23642 -2.076,1.30718 -2.32503,1.45502c-0.78179,0.46266 -1.54742,0.93132 -2.32862,1.42031c-0.53336,0.33338 -0.87458,0.29268 -1.64919,0.28729c-2.44894,-0.01736 -5.25705,-0.78408 -7.38035,-1.89673c-2.79674,-1.4664 -4.30465,-3.52712 -4.31244,-6.84715c-0.00599,-2.31271 0.61178,-4.16276 1.10504,-6.1385zM45.5819,11.60677c1.17149,-0.87924 1.53366,-1.34668 2.61835,-1.37542c0.20053,1.25093 0.54654,2.05893 0.76982,3.8976c0.32565,2.68799 -0.00478,5.46276 -1.87008,7.33136c-1.40315,1.40594 -7.55873,4.40217 -9.90592,4.05562c-0.28075,-0.04129 -2.56747,-1.40774 -2.99308,-1.65613l-2.92663,-1.65732c0.11374,-0.2053 -0.00778,-0.04129 0.15743,-0.19991c0.06585,-0.06344 0.05987,-0.04788 0.13469,-0.10115l3.34627,-2.45994c0.3047,-0.21128 0.92845,-0.72183 1.19963,-0.83434c0.18617,0.13766 0.40406,0.38785 0.57407,0.54526c0.20652,0.19033 0.38491,0.31303 0.61178,0.45907c2.31246,1.48255 6.03106,0.39802 6.72786,-2.89567c0.38012,-1.79558 -0.60999,-2.83343 -0.76443,-3.44812z" fill="#000000" fill-rule="evenodd" stroke="none" stroke-width="1" stroke-miterlimit="10"/><text transform="translate(55.5,27.5) scale(0.5,0.5)" font-size="40" xml:space="preserve" fill="#000000" fill-rule="nonzero" stroke="none" stroke-width="1" stroke-miterlimit="10" font-family="Sans Serif" font-weight="normal" text-anchor="start"><tspan x="0" dy="0">leomalikdev</tspan></text><g fill-rule="evenodd" stroke="#2b2a29" stroke-width="0.04" stroke-miterlimit="22.9256"><path d="M190.31893,236.85574c2.69676,4.97418 -1.13547,13.50134 15.75475,15.63313c-0.28387,0.14211 0,0 -0.85161,0.42637c-2.27095,0.7106 -7.09672,0.56846 -10.6451,4.26357c-3.83223,4.26358 -2.27096,6.96385 -4.25804,11.51168c-0.70967,-5.11629 -1.70322,-9.37989 -4.54191,-11.93803c-3.83223,-3.55299 -7.38061,-2.27392 -11.35478,-4.26357c11.21284,-1.84755 14.47733,-3.97934 15.89668,-15.63314z" fill="#ff0072"/><path d="M117.44716,155.63371c2.89264,-2.98418 1.75311,-4.12519 3.24328,-7.46047c2.45438,4.91513 -0.26296,8.68926 11.39529,10.53243c-11.57062,1.57987 -9.9928,7.98708 -11.39529,11.14682c-1.66546,-3.68635 0.35063,-9.21587 -11.13232,-11.05904c3.24328,-1.14101 5.34702,-0.52662 7.88905,-3.15973z" fill="#ff0072"/><path d="M229.20902,146.89416l2.27096,-3.83723c0,-0.14211 0.14193,-0.14212 0.14193,-0.28423l0.4258,0.56847c2.83869,5.25841 0.56773,2.8424 6.81287,5.54267c-0.99354,0.7106 -1.70322,0.7106 -2.83869,1.13695c-3.2645,1.27907 -3.40643,4.40569 -4.39998,6.25325c-1.13547,-1.98967 -0.42581,-3.26875 -2.27096,-4.97418c-1.56127,-1.42119 -2.55482,-1.27907 -4.25804,-1.98967c-0.14193,-0.14211 -0.28387,0 -0.28387,-0.14212c-0.14193,-0.14211 -0.28387,-0.14212 -0.4258,-0.28423c1.84515,-0.7106 3.6903,-0.85272 4.82577,-1.98967z" fill="#ff0072"/><path d="M144.73643,116.05426c2.66791,11.35335 6.00278,8.14769 11.2052,10.81909c-8.80409,-0.13357 -10.00464,6.27773 -11.07181,10.15124c-3.20148,-7.07915 -0.66698,-6.14417 -7.87033,-9.75053c-1.33396,-0.66784 -0.93376,-0.40071 -1.46734,-0.80141c7.73692,-3.60636 6.66976,-1.46926 9.20426,-10.41838z" fill="#ff0072"/><path d="M170.73193,177.22727c-0.70967,1.42119 -1.27742,2.70027 -1.84516,4.12145l-1.56127,3.26876c-0.28387,0.42637 -0.28387,0.28423 -0.56773,0.7106c-0.4258,3.12662 -5.67738,12.08014 -6.9548,15.91737l15.47087,-6.25324c2.83869,-1.70543 8.37414,-3.69511 11.9225,-5.25841c3.97416,-1.70543 8.23222,-3.41085 12.77413,-4.54782c5.96126,-0.99483 19.44505,-2.84239 25.54824,0.56847l0.56773,0.42637c3.40643,0 9.79349,4.68994 11.9225,6.5375c2.98062,2.55814 5.67739,5.8269 7.94834,10.23259c3.97416,7.39022 6.38706,21.8864 2.55481,30.55568c-1.13547,5.1163 -5.10965,8.1008 -10.92896,8.8114c-6.529,0.56847 -10.6451,-1.42119 -14.61926,-4.26358c-2.41288,-1.56331 -10.36123,-8.1008 -11.35478,-9.94835c-1.41934,-0.42637 -1.27741,-0.7106 -2.55481,-1.70543c-0.56773,-0.28423 -1.56128,-0.99483 -2.41289,-1.42119c-7.23868,-3.97934 -14.19346,-3.12662 -21.2902,-2.84239c-0.99354,0.42637 -1.41935,0.28423 -2.69676,0.85271c-2.98062,1.42119 -9.36768,6.25325 -14.3354,8.24292l-2.83869,1.70543c-5.10965,2.41602 -18.45149,8.81141 -22.99341,7.95869l-2.69676,0.7106c-5.67738,0.42637 -11.63864,-0.42637 -15.89668,-4.26358c-10.2193,-9.23775 -6.67092,-24.44453 -1.13547,-35.67198c1.41935,-3.26875 6.67092,-13.35922 8.65802,-14.78041c0.56773,-1.84755 3.97417,-7.24808 5.25158,-9.66412c1.70322,-3.12662 3.83223,-6.67962 5.53545,-9.52201l10.78704,-18.61764c3.6903,-6.82173 12.06444,-19.47036 17.45795,-24.58665c9.65156,-9.23775 19.58698,-7.95868 27.53533,2.27392c2.83869,3.41086 29.23854,49.74179 30.65788,53.72113c-6.81287,-1.27907 -10.50315,-3.26876 -18.73537,-2.55814c-6.38707,0.56847 -11.21284,2.41602 -17.03215,3.83723c-1.41934,-3.41085 -4.39998,-8.1008 -6.38706,-10.65896c-3.12257,-3.97934 -6.81287,-4.68994 -10.78704,-0.85272c-1.70322,1.70543 -3.6903,4.40569 -4.96771,6.96385z" fill="#000000"/></g><text transform="translate(89.68262,311.69746) scale(0.5,0.5)" font-size="40" xml:space="preserve" fill="#000000" fill-rule="nonzero" stroke="none" stroke-width="1" stroke-miterlimit="10" font-family="&quot;iphone light&quot;, Sans Serif" font-weight="normal" text-anchor="start"><tspan x="0" dy="0">شكرا على اختيارك لـ آريا</tspan></text><text transform="translate(61.25,342.65431) scale(0.5,0.5)" font-size="40" xml:space="preserve" fill="#000000" fill-rule="nonzero" stroke="none" stroke-width="1" stroke-miterlimit="10" font-family="&quot;iphone light&quot;, Sans Serif" font-weight="normal" text-anchor="start"><tspan x="0" dy="0">النموذج خارج عن الخدمة حاليا</tspan></text><g fill="#000000" fill-rule="nonzero" stroke="none" stroke-width="1" stroke-miterlimit="10" font-family="&quot;iphone light&quot;, Sans Serif" font-weight="normal" font-size="40" text-anchor="start"><text transform="translate(305.03014,574.80121) scale(0.34658,0.34658)" font-size="40" xml:space="preserve" fill="#000000"><tspan x="0" dy="0">E503</tspan></text><text transform="translate(152.17504,596.06482) scale(0.34658,0.34658)" font-size="40" xml:space="preserve" fill="#000000"><tspan x="0" dy="0"> الخوادم حاليا تحت الضغط الشديد</tspan><tspan x="0" dy="46.15px">يرجى اعادة المحاولة في وقت لاحق</tspan></text></g></g></g></svg>