<svg version="1.1" xmlns="http://www.w3.org/2000/svg" xmlns:xlink="http://www.w3.org/1999/xlink" width="93.16666" height="93.16666" viewBox="0,0,93.16666,93.16666"><g transform="translate(-133.41667,-273.41667)"><g><path d="M161.11111,365.33333c-14.60486,0 -26.44444,-11.83958 -26.44444,-26.44444v-37.77778c0,-14.60486 11.83958,-26.44444 26.44444,-26.44444h37.77778c14.60486,0 26.44444,11.83958 26.44444,26.44444v37.77778c0,14.60486 -11.83958,26.44444 -26.44444,26.44444z" fill="none" fill-rule="nonzero" stroke="#ffffff" stroke-width="2.5" stroke-miterlimit="10"/><g fill="#ffffff" fill-rule="evenodd" stroke="#2b2a29" stroke-width="0" stroke-miterlimit="22.9256"><path d="M175.49683,294.26039c0.00493,1.98595 0.07151,3.40202 -1.43503,4.01384c-1.63229,0.66116 -3.0328,-0.31578 -3.32129,-1.66524c-0.22438,-1.04848 -0.0789,-3.93489 -0.0789,-5.17087c0,-5.05739 -0.91477,-7.46766 3.41992,-7.46026l21.5551,0.00247c12.08437,0 10.47427,-1.72198 10.47427,11.08431v21.5642c0,12.60152 1.61503,10.88201 -10.67646,10.88201l-21.55756,0.00493c-1.89119,-0.00493 -2.99089,-0.4786 -3.19061,-2.23512l0.0937,-10.55637c0.3452,-1.26065 1.79996,-2.21785 3.42238,-1.44321c1.42024,0.67596 1.29695,2.18084 1.29202,4.15199c-0.00247,1.74665 0,3.4933 0,5.23994h25.7813v-33.85488h-25.7813c0,1.81326 -0.00247,3.62652 0.00247,5.44224z"/><path d="M182.80268,301.25438c-4.17935,-4.15692 0.46109,-6.42658 2.81089,-4.2186c1.43257,1.34452 2.72213,2.73099 4.12511,4.13225c4.73413,4.73667 4.6355,4.51711 -0.10109,9.25625c-1.36353,1.36426 -2.71719,2.86667 -4.12757,4.12979c-1.87639,1.68497 -4.84016,0.60195 -4.29524,-2.07476c0.22191,-1.08549 2.90212,-3.77454 3.65416,-4.22107c-1.35613,-0.27384 -21.49346,-0.09375 -24.6816,-0.09375c-2.56186,0 -5.61932,0.44406 -5.61932,-2.41768c0,-2.91848 3.22266,-2.42014 5.8215,-2.42014c3.14376,0 23.13068,0.18009 24.47941,-0.09375c-0.54985,-0.32565 -1.52133,-1.43827 -2.06625,-1.97855z"/></g><text transform="translate(161.80795,342.55041) scale(0.31463,0.31463)" font-size="40" xml:space="preserve" fill="#ffffff" fill-rule="nonzero" stroke="none" stroke-width="1" stroke-miterlimit="10" font-family="&quot;iphone light&quot;, Sans Serif" font-weight="normal" text-anchor="start"><tspan x="0" dy="0">تسجيل</tspan><tspan x="0" dy="46.150000000000006px">الدخول</tspan></text></g></g></svg>