<svg version="1.1" xmlns="http://www.w3.org/2000/svg" xmlns:xlink="http://www.w3.org/1999/xlink" width="210.71267" height="305.54385" viewBox="0,0,210.71267,305.54385"><g transform="translate(-18.66158,-31.06952)"><g><text transform="translate(18.41158,32.81952) scale(0.5,0.5)" font-size="40" xml:space="preserve" fill="#0a001e" fill-rule="nonzero" stroke="none" stroke-width="1" stroke-miterlimit="10" font-family="Sans Serif" font-weight="normal" text-anchor="start"><tspan x="0" dy="0">ِ</tspan></text><path d="M164.47961,335.86337h-10.72139c-5.53717,0 -10.02593,-4.48876 -10.02593,-10.02593v-14.32275c0,-5.53717 4.48876,-10.02593 10.02593,-10.02593h8.9335h12.2823h6.49135h9.94376h7.36856h9.97816h9.84248c5.53717,0 10.02593,4.48876 10.02593,10.02593v14.32275c0,5.53717 -4.48876,10.02593 -10.02593,10.02593h-10.58211h-9.63251h-6.70373h-8.53161h-9.57516z" fill-opacity="0.01569" fill="#ff5959" fill-rule="nonzero" stroke="#ff5858" stroke-width="1.5" stroke-miterlimit="10"/><path d="M211.445,333.42787v1.94751h-3.31868" fill="none" fill-rule="nonzero" stroke="none" stroke-width="0" stroke-miterlimit="10"/><path d="M198.2736,335.37538h-6.33057" fill="none" fill-rule="nonzero" stroke="none" stroke-width="0" stroke-miterlimit="10"/><path d="M182.8853,335.37538h-9.11868" fill="none" fill-rule="nonzero" stroke="none" stroke-width="0" stroke-miterlimit="10"/><path d="M174.95374,301.9884h6.59034" fill="none" fill-rule="nonzero" stroke="none" stroke-width="0" stroke-miterlimit="10"/><path d="M191.3304,301.9884h7.43909" fill="none" fill-rule="nonzero" stroke="none" stroke-width="0" stroke-miterlimit="10"/><path d="M208.76405,301.9884h2.68095v0.84086" fill="none" fill-rule="nonzero" stroke="none" stroke-width="0" stroke-miterlimit="10"/><path d="M214.00129,320.93442c0.28774,-0.28929 0.80071,-0.88504 1.09105,-1.05941c-0.71217,-0.14663 -11.26594,-0.0502 -12.92595,-0.0502c-1.37228,0 -3.07395,0.26684 -3.07395,-1.29586c0,-1.53231 1.61444,-1.29454 2.96719,-1.29454c1.68345,0 12.31664,0.09643 13.03272,-0.0502c-0.3971,-0.23909 -1.81235,-1.67894 -1.92952,-2.26016c-0.28774,-1.43324 1.27723,-2.01314 2.26803,-1.11093c0.74473,0.67633 1.4595,1.4808 2.17949,2.21129c2.50108,2.53756 2.55316,2.42 0.05338,4.95624c-0.74082,0.7503 -1.42175,1.49268 -2.1782,2.2126c-1.24078,1.18226 -3.69108,-0.03303 -1.48425,-2.25884z" fill="#ff5858" fill-rule="evenodd" stroke="#2b2a29" stroke-width="0" stroke-miterlimit="22.9256"/><text transform="translate(152.46689,322.33834) scale(0.41786,0.41786)" font-size="40" xml:space="preserve" fill="#ff5858" fill-rule="nonzero" stroke="none" stroke-width="1" stroke-miterlimit="10" font-family="&quot; F arabiapps&quot;, Sans Serif" font-weight="normal" text-anchor="start"><tspan x="0" dy="0">عودة</tspan></text></g></g></svg>