<svg version="1.1" xmlns="http://www.w3.org/2000/svg" xmlns:xlink="http://www.w3.org/1999/xlink" width="377" height="56.38462" viewBox="0,0,377,56.38462"><g transform="translate(8.88462,-52.25526)"><g><path d="M-8.88462,108.63988v-56.38462h377v56.38462z" fill="#b7bc4b" fill-rule="nonzero" stroke="none" stroke-width="0" stroke-miterlimit="10"/><text transform="translate(51.73077,85.91344) scale(0.40751,0.40751)" font-size="40" xml:space="preserve" fill="#000000" fill-rule="nonzero" stroke="none" stroke-width="1" stroke-miterlimit="10" font-family="&quot;iphone light&quot;, Sans Serif" font-weight="normal" text-anchor="start"><tspan x="0" dy="0">الخادم مشغول. يتم البحث عن خادم متاح</tspan></text><path d="M339.61418,86.22232c-0.06845,0.00567 -0.10488,0.03303 -0.15909,0.05939c-0.0532,0.02585 -0.10349,0.0411 -0.15467,0.06393c-0.53726,0.23944 -1.23222,0.18875 -1.66321,-0.22242c-0.04412,-0.04211 -0.07614,-0.05485 -0.11471,-0.10377c-0.09996,-0.12659 -0.19703,-0.24196 -0.2675,-0.38822l-0.06668,-0.15168c-0.0982,-0.29844 -0.12568,-0.63307 -0.04059,-0.9319c0.03479,-0.12205 0.06996,-0.21157 0.12177,-0.31547c0.08345,-0.16744 0.25161,-0.37548 0.39355,-0.48064c0.08332,-0.06178 0.16526,-0.12331 0.26447,-0.17249c0.21569,-0.10679 0.52642,-0.2407 0.75635,-0.32278c0.05849,-0.0208 0.10223,-0.04539 0.15367,-0.06481c0.53159,-0.2001 1.06343,-0.41961 1.61266,-0.57281l0.51016,-0.14538c0.06252,-0.01803 0.11093,-0.0266 0.1756,-0.04299c0.3541,-0.0899 0.69874,-0.17803 1.06091,-0.25028c0.12114,-0.02421 0.22892,-0.06556 0.35599,-0.08107c0.67429,-0.08196 1.23663,0.22494 1.57459,0.784c0.03202,0.05308 0.04299,0.09129 0.07135,0.14727l0.56461,1.40232c0.10475,0.23553 0.30594,0.85889 0.37931,1.15053c0.01639,0.06493 0.03063,0.10163 0.04979,0.16883c0.14623,0.5138 0.26951,1.05117 0.37994,1.57355c0.01248,0.05926 0.02849,0.10742 0.03857,0.18005c0.05484,0.3983 -0.02055,0.80052 -0.23926,1.12872c-0.22564,0.33854 -0.58251,0.57457 -0.98099,0.65817c-0.29019,0.06077 -0.69597,0.00845 -0.92527,-0.10541c-0.21947,-0.10906 -0.34023,-0.19921 -0.50865,-0.36565c-0.15278,-0.15118 -0.25754,-0.3427 -0.32599,-0.54822c-0.04475,-0.13416 -0.15039,-0.55679 -0.16224,-0.69839l-0.61441,0.80606c-0.20258,0.26011 -0.43566,0.49539 -0.64605,0.74718l-0.41599,0.43096c-0.02483,0.02484 -0.04261,0.04552 -0.06832,0.06821c-0.03139,0.02761 -0.04336,0.03051 -0.07538,0.06128c-0.12089,0.11638 -0.23686,0.23893 -0.36708,0.3432l-0.14484,0.12835c-0.11648,0.11587 -0.24871,0.21346 -0.37994,0.3166c-0.2622,0.20615 -0.5244,0.41886 -0.8006,0.60634c-0.05521,0.03757 -0.11068,0.07817 -0.16211,0.11108l-1.03771,0.64228c-0.49062,0.28142 -1.19163,0.62349 -1.72233,0.81817l-1.03078,0.36237c-0.14988,0.05006 -0.2738,0.08473 -0.43339,0.12672c-0.29535,0.07779 -0.59651,0.15912 -0.89993,0.22002c-0.41864,0.08397 -1.51018,0.26427 -1.97748,0.26251c-0.09139,-0.00038 -0.16072,0.01362 -0.26762,0.014h-0.01071c-0.10223,-0.00038 -0.16816,-0.01311 -0.25338,-0.01412c-0.5244,-0.00656 -1.05246,-0.04186 -1.56539,-0.12835l-0.71954,-0.12722c-0.3038,-0.06052 -0.5989,-0.1363 -0.89627,-0.22368l-0.63874,-0.19442c-0.27229,-0.09091 -0.54621,-0.21245 -0.81232,-0.30765c-0.13072,-0.04678 -0.25943,-0.11814 -0.38864,-0.17148l-0.19678,-0.0899c-0.03832,-0.01803 -0.04387,-0.02623 -0.08988,-0.04678l-0.28149,-0.14197c-0.03467,-0.02055 -0.05509,-0.02723 -0.09026,-0.04627l-0.27544,-0.14802c-0.05673,-0.03253 -0.11005,-0.06418 -0.17245,-0.10074l-0.34779,-0.2122c-0.52012,-0.31156 -0.99296,-0.6849 -1.46265,-1.06429c-0.05206,-0.04199 -0.09681,-0.08511 -0.14837,-0.12482l-0.15354,-0.13327c-0.16766,-0.14828 -0.5868,-0.5404 -0.70479,-0.68843c-0.03832,-0.04804 -0.09593,-0.0991 -0.14207,-0.14475l-0.51986,-0.60029l-0.88329,-1.22025c-0.01853,-0.02774 -0.03731,-0.05422 -0.05421,-0.08246c-0.01929,-0.03228 -0.03177,-0.0517 -0.05269,-0.08385c-0.16665,-0.25747 -0.31099,-0.53082 -0.45305,-0.80354c-0.01941,-0.03732 -0.03769,-0.05838 -0.05484,-0.09557l-0.11181,-0.2296c-0.11522,-0.24171 -0.2322,-0.4848 -0.32712,-0.73836c-0.01298,-0.0348 -0.02698,-0.05548 -0.04324,-0.0933l-0.15417,-0.40587c-0.03883,-0.10263 -0.08837,-0.33778 -0.08786,-0.47232c0.00189,-0.49905 0.17207,-0.84452 0.50222,-1.17865c0.0808,-0.0817 0.18203,-0.15483 0.28313,-0.20855c0.02181,-0.01147 0.0208,-0.01173 0.04387,-0.02446c0.37881,-0.20791 0.93069,-0.2349 1.36559,-0.03228c0.18909,0.08813 0.35057,0.20817 0.48986,0.35707c0.24682,0.2639 0.32901,0.6013 0.47095,0.92231c0.05786,0.13075 0.10765,0.25772 0.17283,0.38721l0.18972,0.38393c0.05786,0.12936 0.13034,0.24524 0.19779,0.36224l0.43364,0.68654c0.22085,0.33211 0.48041,0.63862 0.74362,0.93656l0.26636,0.29365c0.34074,0.33867 0.40452,0.38544 0.73089,0.67607c0.20031,0.17841 0.41839,0.32555 0.63243,0.48745c0.28842,0.21813 1.0657,0.68502 1.4087,0.83141c0.0745,0.03177 0.13123,0.06304 0.19703,0.08977c0.07324,0.02963 0.12139,0.05699 0.19917,0.08776l0.40162,0.15836c0.82757,0.2958 1.54737,0.5027 2.49658,0.57646c0.33204,0.02585 0.69887,0.07502 1.0507,0.03783c0.34162,-0.03606 0.92754,-0.08675 1.24508,-0.16164c0.07727,-0.01828 0.13879,-0.03152 0.22615,-0.0469l1.01111,-0.25923l0.92262,-0.334c0.04021,-0.01601 0.05925,-0.02761 0.09354,-0.043l0.29598,-0.12747c0.06593,-0.03316 0.12089,-0.05333 0.18657,-0.08649l0.73731,-0.38267c0.34401,-0.18963 0.70769,-0.42907 1.01792,-0.6622l0.32006,-0.23994c0.15114,-0.11222 0.53411,-0.42718 0.68954,-0.58088c0.02584,-0.0256 0.0421,-0.04249 0.06795,-0.06859c0.02584,-0.02597 0.04185,-0.04463 0.06971,-0.06695c0.12694,-0.10125 0.4441,-0.43815 0.55239,-0.56764l0.32561,-0.37094c0.04513,-0.05573 0.08295,-0.09973 0.12883,-0.15811c0.03996,-0.05094 0.09896,-0.09721 0.11509,-0.15799z" fill="#fefefe" fill-rule="evenodd" stroke="#2b2a29" stroke-width="0.61" stroke-miterlimit="22.9256"/><path d="M320.84864,73.73659l0.95224,-1.12405c0.02622,-0.0261 0.04236,-0.04199 0.06845,-0.06809c0.1248,-0.12482 0.59474,-0.6211 0.74879,-0.74c0.05887,-0.04552 0.09026,-0.09356 0.14635,-0.14046l0.16325,-0.13743c0.26195,-0.23275 0.53487,-0.44634 0.80677,-0.66838l1.58468,-1.07879c0.0687,-0.0372 0.1132,-0.06746 0.1819,-0.1049l0.29157,-0.15912c0.193,-0.10036 0.37956,-0.21838 0.58315,-0.30475c0.04374,-0.01841 0.0629,-0.02496 0.10425,-0.04602c0.06921,-0.03505 0.12644,-0.05598 0.19564,-0.09116c0.04122,-0.02093 0.06101,-0.02749 0.10412,-0.04615l0.94418,-0.38065c0.37918,-0.14563 0.97468,-0.31874 1.37467,-0.40095c0.67845,-0.13932 1.39282,-0.26213 2.1024,-0.26049c0.10059,0.00025 0.15959,-0.01147 0.24329,-0.01362h0.11496c0.20308,0.00076 0.42948,0.00315 0.62701,0.02534c0.04916,0.00542 0.09933,0.00013 0.14875,0.00151c0.29548,0.00845 1.27798,0.14222 1.55392,0.20791c0.0745,0.0179 0.17661,0.03165 0.25123,0.0493c0.31931,0.07565 0.62311,0.13756 0.9346,0.23994c0.08522,0.02799 0.14018,0.04337 0.23157,0.06897l0.43742,0.14992c0.65361,0.21561 1.34151,0.54091 1.94029,0.87339c0.03883,0.02156 0.06139,0.02938 0.09744,0.05283c0.06063,0.03972 0.12039,0.07124 0.18077,0.10604l1.07049,0.7052c0.25073,0.1885 0.51205,0.3693 0.74185,0.58302l0.47158,0.41633c0.02862,0.02761 0.04664,0.04728 0.07475,0.07553c0.10122,0.10125 0.19249,0.19241 0.29372,0.29365l0.35561,0.38191c0.02534,0.03026 0.04828,0.04703 0.07475,0.07552c0.18581,0.20073 0.36935,0.43487 0.53575,0.65262c0.04173,0.05472 0.08332,0.10125 0.12707,0.15975l0.93371,1.42943c0.10349,0.18963 0.21594,0.38406 0.30557,0.58239c0.02862,0.06342 0.06379,0.12886 0.09517,0.19165c0.20056,0.39982 0.36847,0.82409 0.51407,1.24799c0.15341,0.44685 0.08496,1.00351 -0.18833,1.37282c-0.03341,0.04514 -0.04488,0.06481 -0.08295,0.10831c-0.11786,0.13453 -0.24027,0.26175 -0.40187,0.34926c-0.40162,0.2175 -0.89539,0.29239 -1.33773,0.11259c-0.17257,-0.07023 -0.39456,-0.18156 -0.51873,-0.32807c-0.01765,-0.02093 -0.00542,-0.01299 -0.03151,-0.03682l-0.10034,-0.1044c-0.05748,-0.06531 -0.17888,-0.2586 -0.21039,-0.34976c-0.02735,-0.07943 -0.0532,-0.11739 -0.08181,-0.20502c-0.08345,-0.2557 -0.21153,-0.56058 -0.33292,-0.80089l-0.49175,-0.91525c-0.03807,-0.05762 -0.07097,-0.12041 -0.10904,-0.17778c-0.22199,-0.33425 -0.45557,-0.6593 -0.70845,-0.97161l-0.33305,-0.37725c-0.02761,-0.0314 -0.03051,-0.04337 -0.06126,-0.0754c-0.28451,-0.29554 -0.43969,-0.43134 -0.71727,-0.68956c-0.14648,-0.13605 -0.30846,-0.25646 -0.46679,-0.38015l-0.49364,-0.35317c-0.22048,-0.16101 -0.46742,-0.29441 -0.70303,-0.43058l-0.45583,-0.24082c-0.21543,-0.12016 -0.46402,-0.1919 -0.68639,-0.29706c-0.3183,-0.15055 -0.94455,-0.32606 -1.28277,-0.41079c-0.08068,-0.0203 -0.13766,-0.03631 -0.22048,-0.0527c-0.14925,-0.02963 -0.31237,-0.06796 -0.4702,-0.0899c-0.24695,-0.0343 -0.49919,-0.08536 -0.74916,-0.09759c-0.26006,-0.01286 -0.52024,-0.04123 -0.7919,-0.04123c-0.19627,0 -0.41246,0.02559 -0.58756,0.02711c-0.06051,0.00038 -0.1219,0.00946 -0.18694,0.0179c-0.79959,0.10301 -0.9317,0.14033 -1.69485,0.3538c-0.20094,0.05623 -0.40641,0.14752 -0.60205,0.2175c-0.17787,0.06355 -0.69773,0.28848 -0.85266,0.37662c-0.03076,0.0174 -0.03593,0.02421 -0.06984,0.03934l-0.19917,0.1015c-0.09001,0.04463 -0.17081,0.09986 -0.26384,0.14588c-0.09845,0.0488 -0.16551,0.09898 -0.25968,0.15004c-0.21581,0.11688 -0.41171,0.26037 -0.61542,0.39528c-0.28666,0.18988 -0.54608,0.40839 -0.82001,0.61429c-0.16665,0.12533 -0.51154,0.42226 -0.66004,0.56928c-0.14106,0.13958 -0.27544,0.26226 -0.41637,0.40322c-0.34616,0.34623 -0.87951,0.94047 -1.13011,1.31482c0.24178,-0.05636 0.61932,-0.21548 0.88758,-0.28697c0.342,-0.09103 0.69282,-0.05195 0.97985,0.07212c0.42646,0.18434 0.69156,0.49022 0.85657,0.90555c0.16816,0.42352 0.08358,0.99418 -0.15354,1.3476c-0.06694,0.09973 -0.13879,0.21132 -0.23296,0.28609l-0.22312,0.17299c-0.4349,0.27096 -1.44412,0.52061 -2.00672,0.69776c-0.18757,0.05901 -0.42406,0.10755 -0.62109,0.15735c-0.07349,0.01853 -0.14774,0.03051 -0.21329,0.04615c-0.1456,0.0348 -0.27935,0.05535 -0.43099,0.08813l-0.43679,0.08221c-0.28729,0.05611 -0.60016,0.09948 -0.90094,0.13706c-0.13816,0.01727 -0.298,0.05069 -0.45469,0.05069c-0.70567,0 -1.32096,-0.47042 -1.50236,-1.13389c-0.06984,-0.25557 -0.16892,-0.52931 -0.25426,-0.78375l-0.17762,-0.58743c-0.15783,-0.48177 -0.34666,-1.40346 -0.43049,-1.90528c-0.02483,-0.14853 -0.05042,-0.29075 -0.07425,-0.44496c-0.04236,-0.27474 -0.11497,-0.63749 -0.11497,-0.90958c0,-0.52628 0.25628,-1.00213 0.68273,-1.28418c0.46679,-0.30853 1.12116,-0.3625 1.60396,-0.07401c0.02597,0.01551 0.0392,0.02068 0.0619,0.03366c0.0421,0.02396 0.06807,0.04829 0.11433,0.07691c0.14358,0.08927 0.28489,0.25822 0.37528,0.40335c0.26371,0.42327 0.18278,0.48606 0.27569,0.88525c0.02357,-0.02698 0.04652,-0.05283 0.06858,-0.0817z" fill="#fefefe" fill-rule="evenodd" stroke="#2b2a29" stroke-width="0.61" stroke-miterlimit="22.9256"/></g></g></svg>